<svg width="97" height="77" viewBox="0 0 97 77" fill="none" xmlns="http://www.w3.org/2000/svg">
<path fill-rule="evenodd" clip-rule="evenodd" d="M20.6739 0C15.1962 0 11.1431 4.82727 11.3245 10.0624C11.4986 15.092 11.2724 21.6059 9.64365 26.9181C8.01005 32.2457 5.24718 35.6207 0.734375 36.0541V40.9459C5.24718 41.3793 8.01005 44.7543 9.64365 50.0823C11.2724 55.3941 11.4986 61.9082 11.3245 66.9377C11.1431 72.1722 15.1962 77 20.6747 77H76.802C82.28 77 86.3324 72.173 86.1508 66.9377C85.9768 61.9082 86.2028 55.3941 87.8316 50.0823C89.466 44.7543 92.2216 41.3793 96.7344 40.9459V36.0541C92.2216 35.6207 89.466 32.2457 87.8316 26.9181C86.2028 21.6067 85.9768 15.092 86.1508 10.0624C86.3324 4.82808 82.28 0 76.802 0H20.6739ZM65.8192 47.3983C65.8192 54.6071 60.4788 58.979 51.6168 58.979H36.531C36.0995 58.979 35.6856 58.8062 35.3805 58.4989C35.0753 58.1916 34.9039 57.7752 34.9039 57.3406V19.6596C34.9039 19.2251 35.0753 18.8084 35.3805 18.5012C35.6856 18.1939 36.0995 18.0213 36.531 18.0213H51.5308C58.92 18.0213 63.7696 22.0515 63.7696 28.2394C63.7696 32.5824 60.5076 36.4709 56.3508 37.1516V37.3787C62.0092 38.0038 65.8192 41.9487 65.8192 47.3983ZM49.972 23.2147H41.37V35.448H48.6148C54.2152 35.448 57.3036 33.1773 57.3036 29.1184C57.3036 25.315 54.648 23.2147 49.972 23.2147ZM41.37 40.3023V53.7839H50.2884C56.1192 53.7839 59.208 51.4278 59.208 47.0004C59.208 42.5722 56.0328 40.3015 49.9132 40.3015L41.37 40.3023Z" fill="white"/>
</svg>
