<svg width="55" height="77" viewBox="0 0 55 77" fill="none" xmlns="http://www.w3.org/2000/svg">
<path fill-rule="evenodd" clip-rule="evenodd" d="M23.6116 0H15.8973C7.37635 0 0.46875 6.89481 0.46875 15.4C0.46875 19.9996 2.48897 24.1281 5.69202 26.95C2.48897 29.7718 0.46875 33.9004 0.46875 38.5C0.46875 43.0996 2.48897 47.2283 5.69202 50.05C2.48897 52.8717 0.46875 57.0004 0.46875 61.6C0.46875 70.105 7.37635 77 15.8973 77C24.4181 77 31.3259 70.105 31.3259 61.6V53.9V51.8399C33.595 53.15 36.2299 53.9 39.0402 53.9C47.561 53.9 54.4688 47.005 54.4688 38.5C54.4688 33.9004 52.4484 29.7719 49.2454 26.95C52.4484 24.1282 54.4688 19.9996 54.4688 15.4C54.4688 6.89481 47.561 0 39.0402 0H31.3259H27.4688H23.6116ZM31.3259 7.7V23.1H39.0402C43.3008 23.1 46.7545 19.6526 46.7545 15.4C46.7545 11.1474 43.3008 7.7 39.0402 7.7H31.3259ZM23.6116 30.8H15.8973C11.6368 30.8 8.18304 34.2473 8.18304 38.5C8.18304 42.7527 11.6368 46.2 15.8973 46.2H23.6116V38.5V30.8ZM15.8973 23.1H23.6116V7.7H15.8973C11.6368 7.7 8.18304 11.1474 8.18304 15.4C8.18304 19.6526 11.6368 23.1 15.8973 23.1ZM31.3259 38.5C31.3259 42.7527 34.7796 46.2 39.0402 46.2C43.3008 46.2 46.7545 42.7527 46.7545 38.5C46.7545 34.2473 43.3008 30.8 39.0402 30.8C34.7796 30.8 31.3259 34.2473 31.3259 38.5ZM15.8973 53.9H23.6116V61.6C23.6116 65.8527 20.1579 69.3 15.8973 69.3C11.6368 69.3 8.18304 65.8527 8.18304 61.6C8.18304 57.3473 11.6368 53.9 15.8973 53.9Z" fill="white"/>
</svg>
