<svg width="77" height="77" viewBox="0 0 77 77" fill="none" xmlns="http://www.w3.org/2000/svg">
<path fill-rule="evenodd" clip-rule="evenodd" d="M58.8096 70.8519C52.1144 70.8519 47.7866 67.66 45.6764 63.4856L51.5466 60.0854C53.0928 62.6099 55.0994 64.4635 58.6561 64.4635C61.641 64.4635 63.5479 62.97 63.5479 60.9097C63.5479 57.8096 59.4119 56.5983 56.4922 55.3475C51.2895 53.1337 47.8364 50.3521 47.8364 44.478C47.8364 39.072 51.9572 34.9517 58.399 34.9517C62.9801 34.9517 66.2797 36.5475 68.6469 40.7181L63.0337 44.3244C61.7983 42.1106 60.4594 41.2351 58.399 41.2351C56.285 41.2351 54.946 42.5748 54.946 44.3244C54.946 46.4883 56.285 47.3635 59.3774 48.7025C65.8577 51.4803 70.761 53.6626 70.761 60.8066C70.761 67.2984 65.662 70.8519 58.8096 70.8519ZM42.2041 59.9823C42.2041 67.4525 37.6038 71.4008 31.2157 71.4008C25.4452 71.4008 21.9883 69.1939 20.2887 65.3571H20.2312H20.2042H20.1889L26.0552 61.2563C27.1871 63.2629 28.2077 64.6865 30.6786 64.6865C33.0497 64.6865 34.5307 63.4857 34.5307 59.883V34.6632H42.2041V59.9823ZM0 76.8674H76.7348V0.132568H0V76.8674Z" fill="white"/>
</svg>
