<svg width="87" height="77" viewBox="0 0 87 77" fill="none" xmlns="http://www.w3.org/2000/svg">
<path d="M43.4888 30.9177C44.9654 30.9177 46.4091 31.3546 47.6379 32.1733C48.8668 32.992 49.8259 34.1559 50.3946 35.5184C50.9633 36.881 51.1161 38.3813 50.8338 39.8305C50.5514 41.2797 49.8466 42.613 48.808 43.6625C47.7694 44.7121 46.4435 45.4309 44.9972 45.7286C43.5508 46.0263 42.0487 45.8895 40.68 45.3354C39.3112 44.7814 38.137 43.8348 37.3052 42.6149C36.4734 41.395 36.0211 39.9563 36.0053 38.48C36 37.4921 36.1894 36.5129 36.5626 35.5983C36.9359 34.6836 37.4856 33.8514 38.1805 33.1492C38.8754 32.4469 39.7019 31.8884 40.6127 31.5056C41.5235 31.1227 42.5008 30.9229 43.4888 30.9177ZM24.9601 70.4899C27.4813 72.0103 32.9639 69.6896 39.3668 63.6878C37.2268 61.2562 35.21 58.7189 33.324 56.0854C30.0962 55.724 26.8901 55.1897 23.7196 54.4849C21.6786 63.0476 22.439 68.9294 24.9601 70.4899ZM27.8015 47.5228L26.6409 45.4822C26.1885 46.606 25.801 47.7549 25.4804 48.9232C26.5609 49.1633 27.7614 49.3634 29.002 49.5634L27.8015 47.5228ZM53.9736 44.4818L57.2151 38.48L53.9736 32.4781C52.7731 30.3575 51.4925 28.4769 50.3319 26.5963C48.1709 26.4763 45.8899 26.4763 43.4888 26.4763C41.0876 26.4763 38.8066 26.4763 36.6456 26.4763C35.485 28.3569 34.2044 30.2375 33.0039 32.3581L29.7624 38.48L33.0039 44.4818C34.2044 46.6025 35.485 48.4831 36.6456 50.3637C38.8066 50.3637 41.0876 50.3637 43.4888 50.3637C45.8899 50.3637 48.1709 50.3637 50.3319 50.3637C51.4925 48.4831 52.7731 46.6025 53.9736 44.4818ZM43.4888 17.5936C42.7284 18.4738 41.928 19.3941 41.1277 20.4744H45.8499C45.0495 19.3941 44.2491 18.4738 43.4888 17.5936ZM43.4888 59.3664C44.2491 58.4862 45.0495 57.5659 45.8499 56.4855H41.1277C41.928 57.5659 42.7284 58.4862 43.4888 59.3664ZM61.9774 6.47013C59.4962 4.94966 53.9736 7.27037 47.6107 13.2722C49.7507 15.7038 51.7676 18.2411 53.6535 20.8746C56.8784 21.1831 60.0844 21.664 63.258 22.315C65.2989 13.7524 64.5386 7.87056 61.9774 6.31008M59.1761 29.2772L60.3366 31.3178C60.789 30.1939 61.1765 29.045 61.4971 27.8767C60.4166 27.6367 59.2161 27.4366 57.9755 27.2365L59.1761 29.2772ZM64.9788 1.26852C70.8615 4.62956 71.5018 13.4723 68.9806 23.7955C79.1454 26.7964 86.4688 31.7979 86.4688 38.52C86.4688 45.2421 79.1454 50.2436 68.9806 53.2445C71.4618 63.5677 70.8215 72.4105 64.9788 75.7715C59.136 79.1325 51.1723 75.2913 43.4888 67.9691C35.8052 75.2913 27.8415 79.1325 21.9587 75.7715C16.076 72.4105 15.4757 63.7678 17.9569 53.2445C7.79216 50.2436 0.46875 45.2421 0.46875 38.52C0.46875 31.7979 7.79216 26.7564 17.9569 23.7555C15.4757 13.4323 16.116 4.58955 21.9587 1.22851C27.8015 -2.13253 35.8052 1.70866 43.4888 9.03092C51.1723 1.70866 59.136 -2.13253 64.9788 1.22851M63.8182 38.48C65.2081 41.4255 66.4371 44.4442 67.4999 47.5228C75.9038 45.002 80.626 41.4009 80.626 38.48C80.626 35.5591 75.7838 31.958 67.4999 29.4372C66.4371 32.5158 65.2081 35.5345 63.8182 38.48ZM23.1593 38.48C21.7695 35.5345 20.5404 32.5158 19.4776 29.4372C11.0737 31.958 6.35149 35.5591 6.35149 38.48C6.35149 41.4009 11.1937 45.002 19.4776 47.5228C20.5404 44.4442 21.7695 41.4255 23.1593 38.48ZM59.1761 47.5228L57.9755 49.5634C59.2161 49.5634 60.4166 49.1633 61.4971 48.9232C61.1765 47.7549 60.789 46.606 60.3366 45.4822L59.1761 47.5228ZM47.4906 63.6878C53.8536 69.6896 59.4962 72.0103 61.8573 70.4899C64.2184 68.9694 65.1789 63.2076 63.1379 54.4849C59.9644 55.136 56.7583 55.6168 53.5334 55.9254C51.6519 58.6134 49.635 61.2042 47.4906 63.6878ZM27.8015 29.4372L29.002 27.3966C27.7614 27.3966 26.5609 27.7967 25.4804 28.0368C25.801 29.2051 26.1885 30.354 26.6409 31.4778L27.8015 29.4372ZM39.4869 13.2722C33.0039 7.27037 27.4813 4.94966 24.9601 6.47013C22.439 7.9906 21.6786 13.7524 23.7196 22.4751C26.8931 21.824 30.0991 21.3432 33.324 21.0346C35.2446 18.3437 37.3015 15.7529 39.4869 13.2722Z" fill="white"/>
</svg>
