<svg width="78" height="77" viewBox="0 0 78 77" fill="none" xmlns="http://www.w3.org/2000/svg">
<path fill-rule="evenodd" clip-rule="evenodd" d="M12.2446 0.132568H65.959C72.3159 0.132568 77.4692 5.28587 77.4692 11.6428V65.3571C77.4692 71.7141 72.3159 76.8674 65.959 76.8674H12.2446C5.88768 76.8674 0.734375 71.7141 0.734375 65.3571V11.6428C0.734375 5.28587 5.88768 0.132568 12.2446 0.132568ZM16.62 34.3036C15.7207 28.3087 25.0128 18.2672 39.4006 13.3214C50.0416 9.72449 62.1813 11.9726 61.8815 20.3655C60.8324 36.252 36.553 39.699 33.5556 32.2054C32.9561 30.5568 34.0052 31.0064 34.3049 31.6059C40.0001 37.0013 56.1863 30.7067 57.9848 21.4146C59.1838 15.2698 49.7418 12.5721 36.4032 19.3163C23.0645 26.0606 22.3151 31.456 22.1653 33.5542C21.9632 37.3936 24.9624 39.7345 28.4537 42.4595C30.1413 43.7767 31.9439 45.1836 33.5556 46.8929C42.0983 44.6448 48.9925 47.6423 48.9925 54.0868C48.9925 56.6346 46.7444 58.1334 45.6953 58.4331C44.6462 58.7328 43.597 58.4331 45.2456 57.8336C46.8942 57.2341 49.2922 53.4873 44.6462 50.1901C43.4472 49.2909 39.4006 47.7921 34.7546 48.9911C36.8528 55.1359 33.5556 60.9809 30.2584 63.0792C26.9612 65.1774 19.1678 67.4255 18.8681 60.2316C18.7182 54.986 25.3126 50.9395 30.5581 48.2418C29.7247 47.5935 28.6815 46.8754 27.5424 46.0912C23.1508 43.0681 17.334 39.0638 16.62 34.3036ZM23.0645 59.1825C22.9146 60.0817 22.7647 62.4797 26.5116 61.2807C29.6589 60.3815 33.7054 56.0351 31.907 50.34C25.6123 53.4873 23.5141 56.6346 23.0645 59.1825Z" fill="white"/>
</svg>
