<svg width="78" height="77" viewBox="0 0 78 77" fill="none" xmlns="http://www.w3.org/2000/svg">
<path d="M0.46875 38.5V77H77.4687V0H0.46875V38.5ZM62.5163 35.4296C64.4726 35.9181 65.9621 36.7964 67.3408 38.2112C68.0435 38.962 69.095 40.3408 69.184 40.6801C69.2081 40.7811 65.8634 43.0237 63.8325 44.2774C63.7579 44.3279 63.4572 44.0151 63.1299 43.5242C62.1409 42.0829 61.099 41.4573 59.5085 41.3442C57.1768 41.1926 55.6729 42.4102 55.685 44.4531C55.6729 44.9536 55.786 45.4565 56.0098 45.8944C56.5248 46.9604 57.4897 47.598 60.471 48.8902C65.9861 51.2579 68.3418 52.8244 69.8073 55.043C71.4483 57.5238 71.8117 61.4845 70.7096 64.4418C69.4824 67.6373 66.4481 69.8173 62.1867 70.532C60.8704 70.7702 57.7375 70.7317 56.3202 70.4694C53.2258 69.9184 50.2926 68.388 48.4879 66.3836C47.7732 65.6064 46.3944 63.5635 46.4835 63.4263C46.522 63.3758 46.8348 63.1761 47.1861 62.974C47.5374 62.7718 48.8272 62.0211 50.0447 61.3185L52.2633 60.0287L52.7277 60.7169C53.3798 61.7059 54.7947 63.0606 55.6489 63.5106C58.1057 64.8147 61.4768 64.6271 63.1443 63.1352C63.8205 62.5721 64.1983 61.7059 64.1478 60.83C64.1478 59.9397 64.0347 59.5402 63.5703 58.8737C62.9687 58.0219 61.7535 57.2952 58.2813 55.7913C54.3086 54.0733 52.5905 53.0217 51.0385 51.3301C50.0616 50.2136 49.3349 48.8998 48.921 47.4825C48.6322 46.3925 48.5577 43.659 48.7838 42.569C49.5996 38.7214 52.5063 36.0528 56.6787 35.2636C58.0335 35.0013 61.1905 35.1 62.5187 35.4272L62.5163 35.4296ZM44.4454 38.6516L44.4694 41.7966H34.4426V70.2842H27.349V41.7966H17.3366V38.7142C17.3366 36.9961 17.3751 35.5692 17.4232 35.5307C17.4617 35.4802 23.5519 35.4561 30.9463 35.4681L44.4069 35.5066L44.4454 38.6516Z" fill="white"/>
</svg>
